<svg width="120" height="120" viewBox="0 0 120 120" fill="none" xmlns="http://www.w3.org/2000/svg">
<path d="M120 0C120 33.1269 93.1536 59.9835 60.0306 60H60L60 59.9694C60.0165 26.8464 86.8731 0 120 0Z" fill="currentColor"/>
<path d="M0.0306053 120C33.1536 119.983 60 93.1269 60 60C60 93.1269 86.8464 119.983 119.969 120H120L120 119.969C119.983 86.8464 93.1269 60 60 60C26.8731 60 0.0165367 86.8464 7.62939e-06 119.969L0 120H0.0306053Z" fill="currentColor"/>
<path d="M59.9694 60C26.8464 59.9835 0 33.1269 0 0C33.1269 0 59.9835 26.8464 60 59.9694L60 60H59.9694Z" fill="currentColor"/>
</svg>
