<svg width="120" height="120" viewBox="0 0 120 120" fill="none" xmlns="http://www.w3.org/2000/svg">
<path d="M30 0C46.5686 0 60 13.4315 60 30V60C60 76.5686 46.5686 90 30 90C13.4314 90 0 76.5686 0 60V30C0 13.4315 13.4314 0 30 0Z" fill="currentColor"/>
<path d="M30 90C46.5686 90 60 103.431 60 120H0C0 103.431 13.4314 90 30 90Z" fill="currentColor"/>
<path d="M90 30C73.4314 30 60 43.4315 60 60V90C60 106.569 73.4314 120 90 120C106.569 120 120 106.569 120 90V60C120 43.4315 106.569 30 90 30Z" fill="currentColor"/>
<path d="M90 30C106.569 30 120 16.5685 120 0H60C60 16.5685 73.4314 30 90 30Z" fill="currentColor"/>
</svg>
