<svg width="72" height="72" viewBox="0 0 72 72" fill="none" xmlns="http://www.w3.org/2000/svg">
<path d="M50.2769 22.332C49.5179 21.276 48.1619 20.838 46.9349 21.225C45.6959 21.618 44.8559 22.764 44.8439 24.06C44.8259 26.349 44.2379 28.068 43.4159 29.355C44.1869 23.943 43.6199 19.281 41.7179 15.228C38.5889 8.55899 34.0019 7.62599 33.4889 7.54199C32.6279 7.39499 31.7429 7.64999 31.0739 8.21099C30.4019 8.77499 30.0119 9.60899 30.0029 10.482C30.0029 10.545 29.8679 17.049 24.8729 22.047C18.3269 28.593 15.0029 33.708 15.0029 43.5C15.0029 60.111 28.7399 64.5 36.0029 64.5C43.2659 64.5 57.0029 60.111 57.0029 43.5C57.0029 31.803 50.5529 22.713 50.2769 22.332Z" fill="#006FFF"/>
</svg>
