<svg width="24" height="24" viewBox="0 0 24 24" fill="none" xmlns="http://www.w3.org/2000/svg">
  <path fill-rule="evenodd" clip-rule="evenodd" d="M11.58 1.1199C11.94 0.929897 12.38 0.969897 12.7 1.2299C13.01 1.4899 13.14 1.9199 13.01 2.3099C12.02 5.3199 12.08 7.5499 12.57 8.9699C13.06 10.3999 13.9 10.8799 14.53 10.8799C15.05 10.8799 15.44 10.6699 15.65 10.3299C15.86 9.9799 16.02 9.2899 15.62 8.1099C15.48 7.7099 15.62 7.2599 15.96 6.9999C16.3 6.7399 16.76 6.7199 17.12 6.9599C19.69 8.6799 20.99 11.3499 20.99 14.2199C20.99 19.2499 17.14 22.9899 11.92 22.9899C6.69999 22.9899 2.99999 19.2099 2.99999 14.2099C2.99999 9.9499 5.19999 6.6599 7.30999 4.4799C8.36999 3.3899 9.42999 2.5499 10.22 1.9899C10.804 1.58108 11.368 1.24062 11.58 1.1199ZM10.66 9.6199C10.18 8.2299 10.06 6.4499 10.42 4.3499V4.3399C9.88999 4.7699 9.30999 5.2799 8.72999 5.8799C6.80999 7.8699 4.97999 10.6899 4.97999 14.2199C4.97999 18.1099 7.74999 20.9999 11.9 20.9999C16.05 20.9999 18.98 18.0799 18.98 14.2199C18.98 12.7899 18.58 11.4399 17.76 10.3099C17.67 10.6999 17.53 11.0599 17.33 11.3799C16.7 12.4099 15.6 12.8799 14.51 12.8799C12.75 12.8799 11.32 11.5599 10.66 9.6199Z" fill="#1A1C20"/>
</svg>
