<svg width="24" height="24" viewBox="0 0 24 24" fill="none" xmlns="http://www.w3.org/2000/svg">
  <path fill-rule="evenodd" clip-rule="evenodd" d="M10.5236 2.23936C11.4279 1.67819 12.5721 1.67819 13.4764 2.23936L21.1764 7.01776C21.9994 7.52849 22.5 8.42829 22.5 9.39688V19.5001C22.5 21.1569 21.1569 22.5001 19.5 22.5001L15.1921 22.5001C14.9268 22.5001 14.6725 22.3947 14.4849 22.2072C14.2974 22.0196 14.192 21.7653 14.192 21.5001V16.3321C14.192 15.1169 13.2088 14.1401 12 14.1401C10.7848 14.1401 9.80805 15.1233 9.80805 16.3321L9.808 21.5001C9.80799 22.0523 9.36028 22.5 8.808 22.5H4.5C2.84315 22.5 1.5 21.1569 1.5 19.5001V9.39688C1.5 8.42829 2.00059 7.52849 2.82359 7.01776L10.5236 2.23936ZM12.4218 3.93873C12.1635 3.7784 11.8365 3.7784 11.5782 3.93873L3.87817 8.71713C3.64303 8.86306 3.5 9.12014 3.5 9.39688V19.5001C3.5 20.0523 3.94771 20.5 4.5 20.5H7.80801L7.80805 16.3321C7.80805 14.0231 9.67583 12.1401 12 12.1401C14.309 12.1401 16.192 14.0079 16.192 16.3321V20.5001L19.5 20.5001C20.0523 20.5001 20.5 20.0523 20.5 19.5001V9.39688C20.5 9.12014 20.357 8.86306 20.1218 8.71713L12.4218 3.93873Z" fill="#1A1C20"/>
</svg>
