<svg width="24" height="24" viewBox="0 0 24 24" fill="none" xmlns="http://www.w3.org/2000/svg">
  <path fill-rule="evenodd" clip-rule="evenodd" d="M6.46619 8.93426C6.46619 7.73542 7.80229 7.02035 8.79979 7.68535L13.3984 10.7511C14.2896 11.3452 14.2896 12.6548 13.3984 13.2489L8.79979 16.3146C7.8023 16.9796 6.46619 16.2646 6.46619 15.0657V8.93426ZM8.46819 9.87038V14.1296L11.6626 12L8.46819 9.87038Z" fill="#1A1C20"/>
  <path fill-rule="evenodd" clip-rule="evenodd" d="M1.42036 4.38374C1.80683 3.31188 2.82695 2.75 3.83341 2.75H15.3671C16.9135 2.75 18.1671 4.0036 18.1671 5.55V7.45047L22.3586 5.53934C22.6681 5.3982 23.0282 5.42411 23.3143 5.60813C23.6005 5.79214 23.7734 6.10901 23.7734 6.44922V17.5508C23.7734 17.891 23.6005 18.2078 23.3144 18.3918C23.0283 18.5759 22.6682 18.6018 22.3587 18.4607L18.1671 16.5501V18.4501C18.1671 19.9965 16.9135 21.2501 15.3671 21.2501H3.83338C2.82694 21.2501 1.80684 20.6882 1.42036 19.6164C0.938419 18.2798 0.273402 15.7537 0.273438 12C0.273473 8.24637 0.938451 5.72034 1.42036 4.38374ZM3.83341 4.75C3.53316 4.75 3.35856 4.9047 3.30181 5.06209C2.89485 6.1908 2.27347 8.48771 2.27344 12C2.2734 15.5124 2.89482 17.8093 3.30179 18.938C3.35854 19.0954 3.53313 19.2501 3.83338 19.2501H15.3671C15.8089 19.2501 16.1671 18.8919 16.1671 18.4501V14.9953C16.1671 14.6551 16.3401 14.3383 16.6262 14.1543C16.9123 13.9702 17.2723 13.9443 17.5819 14.0854L21.7734 15.996V8.00422L17.582 9.91535C17.2724 10.0565 16.9124 10.0306 16.6262 9.84656C16.3401 9.66255 16.1671 9.34568 16.1671 9.00547V5.55C16.1671 5.10817 15.8089 4.75 15.3671 4.75H3.83341Z" fill="#1A1C20"/>
</svg>
