<svg width="24" height="24" viewBox="0 0 24 24" fill="none" xmlns="http://www.w3.org/2000/svg">
  <path fill-rule="evenodd" clip-rule="evenodd" d="M23.2869 5.57508C22.9669 5.39508 22.5869 5.40508 22.2769 5.59508L18.1969 8.11508V5.55508C18.1969 4.00508 16.9469 2.75508 15.3969 2.75508H3.85687C2.84687 2.74508 1.82687 3.30508 1.44687 4.37508C0.956875 5.71508 0.296875 8.24508 0.296875 11.9951C0.296875 15.7451 0.956875 18.2751 1.44687 19.6151C1.83687 20.6851 2.85687 21.2451 3.85687 21.2451H15.3869C16.9369 21.2451 18.1869 19.9951 18.1869 18.4451V15.8851L22.2669 18.4051C22.5769 18.5951 22.9669 18.6051 23.2769 18.4251C23.5969 18.2451 23.7869 17.9151 23.7869 17.5551V6.44508C23.7869 6.08508 23.5869 5.74508 23.2769 5.57508H23.2869ZM13.1369 12.7551L8.13688 16.0051C7.98688 16.1051 7.81687 16.1551 7.63688 16.1551C7.48688 16.1551 7.33687 16.1151 7.19688 16.0451C6.90688 15.8851 6.71688 15.5751 6.71688 15.2451L6.73688 8.74508C6.73688 8.41508 6.91687 8.10508 7.21688 7.94508C7.50688 7.78508 7.86687 7.80508 8.14687 7.98508L13.1269 11.2351C13.3869 11.4051 13.5369 11.6951 13.5369 11.9951C13.5369 12.3051 13.3769 12.5851 13.1269 12.7551H13.1369Z" fill="#1A1C20"/>
</svg>
