<svg width="24" height="24" viewBox="0 0 24 24" fill="none" xmlns="http://www.w3.org/2000/svg">
  <path fill-rule="evenodd" clip-rule="evenodd" d="M6.51918 6.5022C6.51918 3.468 8.97757 1 12.002 1C15.0264 1 17.4848 3.468 17.4848 6.5022C17.4848 9.5364 15.0264 12.0044 12.002 12.0044C8.97757 12.0044 6.51918 9.5364 6.51918 6.5022ZM12.002 3C10.0796 3 8.51294 4.57165 8.51294 6.5022C8.51294 8.43275 10.0796 10.0044 12.002 10.0044C13.9244 10.0044 15.4911 8.43275 15.4911 6.5022C15.4911 4.57165 13.9244 3 12.002 3Z" fill="#1A1C20"/>
  <path fill-rule="evenodd" clip-rule="evenodd" d="M2.3696 19.9138C3.54757 16.3823 7.53038 14 12 14C16.4696 14 20.4524 16.3823 21.6304 19.9138C21.9133 20.762 21.6692 21.5752 21.1618 22.1391C20.6717 22.6838 19.9429 23 19.1794 23H4.8206C4.05707 23 3.32829 22.6838 2.83819 22.1391C2.33084 21.5752 2.08667 20.762 2.3696 19.9138ZM12 16C8.12313 16 5.09079 18.0587 4.26032 20.5484C4.22846 20.6439 4.2517 20.7251 4.31828 20.7991C4.41186 20.9031 4.59313 21 4.8206 21H19.1794C19.4069 21 19.5881 20.9031 19.6817 20.7991C19.7483 20.7251 19.7715 20.6439 19.7397 20.5484C18.9092 18.0587 15.8769 16 12 16Z" fill="#1A1C20"/>
</svg>
