<svg width="24" height="24" viewBox="0 0 24 24" fill="none" xmlns="http://www.w3.org/2000/svg">
  <path d="M22.1133 3.54005C21.9933 3.25005 21.7533 3.01005 21.4633 2.89005C21.3133 2.83005 21.1633 2.80005 21.0033 2.80005H15.0033C14.3433 2.80005 13.8033 3.34005 13.8033 4.00005C13.8033 4.66005 14.3433 5.20005 15.0033 5.20005H18.1033L13.0033 10.3L10.8533 8.15005C10.3833 7.68005 9.62328 7.68005 9.15328 8.15005L2.15328 15.15C1.68328 15.62 1.68328 16.38 2.15328 16.85C2.6208 17.3176 3.38255 17.3012 3.85328 16.85L10.0033 10.7L12.1533 12.85C12.6233 13.32 13.3833 13.32 13.8533 12.85L19.8033 6.90005V10C19.8033 10.66 20.3433 11.2 21.0033 11.2C21.6633 11.2 22.2033 10.66 22.2033 10V4.00005C22.2033 3.84005 22.1733 3.69005 22.1133 3.54005Z" fill="#1A1C20"/>
  <path d="M21.0027 18.8H3.00273C2.34273 18.8 1.80273 19.34 1.80273 20C1.80273 20.66 2.34273 21.2 3.00273 21.2H21.0027C21.6627 21.2 22.2027 20.66 22.2027 20C22.2027 19.34 21.6627 18.8 21.0027 18.8Z" fill="#1A1C20"/>
</svg>
