<svg width="24" height="24" viewBox="0 0 24 24" fill="none" xmlns="http://www.w3.org/2000/svg">
  <path fill-rule="evenodd" clip-rule="evenodd" d="M21 19H3C2.45 19 2 19.45 2 20C2 20.55 2.45 21 3 21H21C21.55 21 22 20.55 22 20C22 19.45 21.55 19 21 19Z" fill="#1A1C20"/>
  <path fill-rule="evenodd" clip-rule="evenodd" d="M21.9205 3.61977C21.8705 3.49977 21.8005 3.38977 21.7005 3.29977C21.6105 3.20977 21.5005 3.13977 21.3805 3.08977C21.2605 3.03977 21.1305 3.00977 21.0005 3.00977H15.0005C14.4505 3.00977 14.0005 3.45977 14.0005 4.00977C14.0005 4.55977 14.4505 5.00977 15.0005 5.00977H18.5905L13.0005 10.5998L10.7105 8.30977C10.3205 7.91977 9.69055 7.91977 9.30055 8.30977L2.29055 15.2898C1.90055 15.6798 1.90055 16.3098 2.29055 16.6998C2.68055 17.0898 3.31055 17.0898 3.70055 16.6998L9.99055 10.4098L12.2805 12.6998C12.6705 13.0898 13.3005 13.0898 13.6905 12.6998L19.9805 6.40977V9.99977C19.9805 10.5498 20.4305 10.9998 20.9805 10.9998C21.5305 10.9998 21.9805 10.5498 21.9805 9.99977V3.99977C21.9805 3.86977 21.9505 3.73977 21.9005 3.61977H21.9205Z" fill="#1A1C20"/>
</svg>
